<svg width="28" height="33" viewBox="0 0 28 33" fill="none" xmlns="http://www.w3.org/2000/svg">
<path d="M17.2856 29.9493H17.1381C12.1017 29.9493 9.67417 27.5959 9.25447 22.3241C9.2091 21.7728 9.54939 21.2752 10.0258 21.2214C10.4795 21.1676 10.9106 21.5845 10.956 22.1359C11.2849 26.3586 12.9638 27.9321 17.1495 27.9321H17.2969C21.9136 27.9321 23.5471 25.9955 23.5471 20.5221V11.7538C23.5471 6.28032 21.9136 4.34377 17.2969 4.34377H17.1495C12.9411 4.34377 11.2622 5.94411 10.956 10.2476C10.8992 10.7989 10.5022 11.2158 10.0258 11.162C9.54939 11.1217 9.2091 10.6241 9.24313 10.0727C9.6288 4.72032 12.0677 2.32653 17.1381 2.32653H17.2856C22.8551 2.32653 25.2372 5.15066 25.2372 11.7538V20.5221C25.2372 27.1252 22.8551 29.9493 17.2856 29.9493Z" fill="white"/>
<path d="M17.0139 17.1466H4.10526C3.64019 17.1466 3.25452 16.6893 3.25452 16.1379C3.25452 15.5866 3.64019 15.1293 4.10526 15.1293H17.0139C17.4789 15.1293 17.8646 15.5866 17.8646 16.1379C17.8646 16.6893 17.4789 17.1466 17.0139 17.1466Z" fill="white"/>
<path d="M6.63522 21.6515C6.41969 21.6515 6.20417 21.5573 6.03402 21.3556L2.23402 16.8504C1.90507 16.4604 1.90507 15.8149 2.23402 15.4249L6.03402 10.9198C6.36298 10.5298 6.90745 10.5298 7.23641 10.9198C7.56536 11.3098 7.56536 11.9553 7.23641 12.3453L4.0376 16.1377L7.23641 19.9301C7.56536 20.3201 7.56536 20.9656 7.23641 21.3556C7.0776 21.5573 6.85074 21.6515 6.63522 21.6515Z" fill="white"/>
</svg>
